<?xml version="1.0" encoding="UTF-8" standalone="no"?>
<svg xmlns="http://www.w3.org/2000/svg" width="1773" height="2500" viewBox="0 0 538.584 538.583">
  <path d="M0 0h538.584v538.583H0V0z" fill="none"/>
  <path d="M405.5 467.454L269.29 504.13l-136.212-36.676-31.432-340.525h335.29L405.5 467.454z" fill="#2062af"/>
  <path d="M269.289 154.511v320.367l.308.084 110.229-29.682 25.443-290.769h-135.98z" fill="#3c9cd7"/>
  <path d="M269.168 239.656l-97.49 40.602 3.233 40.199 94.257-40.301 100.265-42.868 4.157-41.122-104.422 43.49z" fill="#ffffff"/>
  <path d="M269.168 239.656l-97.49 40.602 3.233 40.199 94.257-40.301 100.265-42.868 4.157-41.122-104.422 43.49z" fill="#ffffff"/>
  <path d="M269.168 239.656l-97.49 40.602 3.233 40.199 94.257-40.301 100.265-42.868 4.157-41.122-104.422 43.49z" fill="#ffffff"/>
  <path d="M269.168 239.656l-97.49 40.602 3.233 40.199 94.257-40.301 100.265-42.868 4.157-41.122-104.422 43.49z" fill="#ffffff"/>
</svg> 