<?xml version="1.0" encoding="UTF-8"?>
<svg width="256px" height="256px" viewBox="0 0 256 256" version="1.1" xmlns="http://www.w3.org/2000/svg">
    <g fill="none" fill-rule="evenodd">
        <circle fill="#61DAFB" cx="128" cy="128" r="20"/>
        <path d="M128,160.5 C184.886,160.5 231,145.836 231,128 C231,110.164 184.886,95.5 128,95.5 C71.114,95.5 25,110.164 25,128 C25,145.836 71.114,160.5 128,160.5 Z" stroke="#61DAFB" stroke-width="10" fill="none"/>
        <path d="M95.5,144.25 C124.136,189.779 158.536,217.5 176.372,208.661 C194.208,199.823 188.546,153.451 160.5,108.5 C132.454,63.549 97.464,35.249 79.628,44.088 C61.792,52.927 66.864,98.721 95.5,144.25 Z" stroke="#61DAFB" stroke-width="10" fill="none"/>
        <path d="M95.5,108.5 C66.864,153.451 61.792,199.823 79.628,208.661 C97.464,217.5 132.454,189.779 160.5,144.25 C188.546,98.721 194.208,52.927 176.372,44.088 C158.536,35.249 124.136,63.549 95.5,108.5 Z" stroke="#61DAFB" stroke-width="10" fill="none"/>
    </g>
</svg> 