<svg id="svg" version="1.1" xmlns="http://www.w3.org/2000/svg" style="display: block;" viewBox="0 0 819 819"><path d="M0 0 C270.27 0 540.54 0 819 0 C819 270.27 819 540.54 819 819 C548.73 819 278.46 819 0 819 C0 548.73 0 278.46 0 0 Z M376 137 C376 163.4 376 189.8 376 217 C380.00480249 216.1990395 381.81474098 215.76508802 385.1015625 213.8203125 C385.83890625 213.38589844 386.57625 212.95148438 387.3359375 212.50390625 C388.09132813 212.04886719 388.84671875 211.59382813 389.625 211.125 C390.388125 210.67769531 391.15125 210.23039062 391.9375 209.76953125 C396.00226698 207.423717 396.00226698 207.423717 399.54370117 204.39282227 C401 203 401 203 404.13671875 202.26953125 C405.30847656 202.11871094 406.48023438 201.96789062 407.6875 201.8125 C409.45673828 201.57466797 409.45673828 201.57466797 411.26171875 201.33203125 C412.61716797 201.16767578 412.61716797 201.16767578 414 201 C412.36857673 211.61384783 412.36857673 211.61384783 410.375 215.875 C408.93693752 219.14332381 408.4288593 220.51655626 409 224 C410.81338034 226.04563595 412.49346752 227.69478629 414.5625 229.4375 C415.110271 229.91614502 415.65804199 230.39479004 416.22241211 230.88793945 C417.31116156 231.83675508 418.40490322 232.77987703 419.50390625 233.71679688 C420.77208327 234.80451529 422.01413382 235.92258007 423.25 237.046875 C424.77719771 238.42925224 426.38143724 239.7258123 428 241 C428.99 241 429.98 241 431 241 C431.04636562 233.50685393 431.08189069 226.01372276 431.10362434 218.52046585 C431.11405608 215.04093606 431.12820401 211.56150451 431.15087891 208.08203125 C431.17679095 204.08071963 431.18647782 200.07951103 431.1953125 196.078125 C431.20563507 194.83009094 431.21595764 193.58205688 431.22659302 192.29620361 C431.22674408 191.13530212 431.22689514 189.97440063 431.22705078 188.77832031 C431.23371262 187.24609833 431.23371262 187.24609833 431.24050903 185.68292236 C430.99355522 182.92810725 430.46391711 181.32388561 429 179 C427.37500298 177.5741284 427.37500298 177.5741284 425.375 176.25 C419.69619513 172.01620707 414.87177907 167.00661545 409.93701172 161.95019531 C406.04595463 157.9791784 402.05082083 154.23776674 397.83666992 150.61181641 C395.32910958 148.41124305 393.01676297 146.07620189 390.6875 143.6875 C388.17194159 141.10875645 386.00332365 139.00221576 383 137 C380.69 137 378.38 137 376 137 Z M447 138 C446.86754759 149.21639764 446.73704946 160.4328163 446.60884857 171.64926338 C446.5492218 176.86107599 446.48899468 182.07288003 446.42724609 187.28466797 C446.40330903 189.31347643 446.37938319 191.34228502 446.35546875 193.37109375 C446.3376963 194.86892458 446.3376963 194.86892458 446.31956482 196.39701462 C446.26152285 201.37166893 446.20878192 206.34628898 446.16674805 211.32110596 C446.15025998 213.25345893 446.13374028 215.18581164 446.1171875 217.11816406 C446.10933731 218.05101856 446.10148712 218.98387306 446.09339905 219.94499588 C446.04571686 225.01012381 445.95952909 230.07157699 445.81774139 235.13494301 C445.75978669 237.27004245 445.71402708 239.40501206 445.67297363 241.54049683 C445.62219919 244.03308015 445.54896406 246.52536761 445.44714355 249.01638794 C445.43042603 250.10136566 445.4137085 251.18634338 445.39648438 252.30419922 C445.36824585 253.22079315 445.34000732 254.13738708 445.31091309 255.08175659 C446.08316821 259.22225927 446.08316821 259.22225927 452 266 C407.45 266 362.9 266 317 266 C317 275.24 317 284.48 317 294 C324.59 294 332.18 294 340 294 C339.67 295.65 339.34 297.3 339 299 C336.25390625 300.625 336.25390625 300.625 332.5625 302 C331.8936377 302.25217285 331.22477539 302.5043457 330.53564453 302.76416016 C324.8291227 304.85229715 319.00625633 306.41880215 313.13500977 307.96484375 C306.95318652 309.63486163 300.98325333 311.72314911 295 314 C294.15228027 314.3201709 293.30456055 314.6403418 292.43115234 314.97021484 C283.97757743 318.24934778 275.97122765 321.80952372 268.984375 327.66796875 C264.2588204 330.84004378 259.36103041 331.26665713 253.79296875 331.37890625 C253.11397522 331.3955835 252.43498169 331.41226074 251.7354126 331.42944336 C250.29382122 331.46401291 248.85212779 331.4945339 247.41036987 331.52127075 C243.69502944 331.59018198 239.9804106 331.68764219 236.265625 331.78125 C235.18159645 331.80730064 235.18159645 331.80730064 234.07566833 331.83387756 C226.36909572 332.02520622 218.68855177 332.44830239 211 333 C213.23092203 339.02016379 216.67305129 344.20055418 220.0625 349.625 C221.00899414 351.16994141 221.00899414 351.16994141 221.97460938 352.74609375 C230.22852265 365.98900203 240.43682507 376.69274709 251.5 387.5625 C253.42844644 389.46326654 255.35535034 391.36553854 257.27941895 393.27073669 C258.46635233 394.44546175 259.65594921 395.61750325 260.84851074 396.78651428 C264.888359 400.776718 264.888359 400.776718 266 403 C268.61241319 403.19206967 271.11899404 403.25135199 273.73266602 403.22705078 C274.96691393 403.22741239 274.96691393 403.22741239 276.22609615 403.2277813 C278.90214106 403.22628286 281.57791088 403.21102613 284.25390625 403.1953125 C285.90099961 403.1923737 287.54809483 403.19033226 289.19519043 403.18920898 C295.31765535 403.1787027 301.44008034 403.15078053 307.5625 403.125 C328.0740625 403.063125 328.0740625 403.063125 349 403 C349 431.05 349 459.1 349 488 C353.25997462 486.93500634 354.19943839 486.17417359 357.19233704 483.17515564 C358.02072083 482.352341 358.84910461 481.52952637 359.70259094 480.68177795 C360.60293564 479.77221848 361.50328033 478.862659 362.4309082 477.92553711 C363.39486109 476.9623752 364.3594672 475.99986668 365.32467651 475.03796387 C367.94532389 472.422454 370.5565291 469.7976983 373.16603494 467.17107844 C375.90298581 464.4190789 378.64805291 461.675198 381.39213562 458.93031311 C386.00465981 454.31409442 390.61150974 449.69227574 395.21459961 445.06665039 C401.10540608 439.14706124 407.00535723 433.23667684 412.90833759 427.32923031 C417.99797315 422.2355971 423.08334835 417.13771635 428.16805625 412.03916478 C429.79421486 410.40892661 431.4209452 408.7792606 433.04775429 407.14967155 C435.61684183 404.5756471 438.18324227 401.99897081 440.74767685 399.42031097 C442.12713098 398.03425904 443.50893036 396.65054239 444.89082336 395.266922 C449.29320827 390.83449772 453.55876389 386.3438852 457.61863995 381.59444523 C458.69576826 380.35116178 459.8368235 379.1631765 461 378 C467.60084029 377.08953927 474.23198282 378.45940209 480.7265625 379.5546875 C485.49782403 380.20376126 490.19622896 380.17328232 495 380 C491.82273508 383.81271791 488.600001 387.45516471 485.0625 390.9375 C480.27080811 395.66505835 475.85082617 400.64895054 471.6875 405.9375 C470 408 470 408 468 409 C468 409.66 468 410.32 468 411 C467.44957031 411.26554687 466.89914062 411.53109375 466.33203125 411.8046875 C463.19504441 413.4125903 461.15762413 415.61644395 458.6875 418.125 C458.20039551 418.6185498 457.71329102 419.11209961 457.21142578 419.62060547 C453.91771699 422.98418412 450.79602301 426.45920747 447.7421875 430.0390625 C445.02955756 433.09229171 442.09399547 435.9140315 439.1875 438.78125 C437.20279658 440.79430632 435.33903084 442.85446403 433.5 445 C430.31995344 448.71005432 426.91238198 452.12977867 423.40625 455.53125 C421.48213288 457.50534419 419.695666 459.50183749 417.90625 461.59375 C412.76947106 467.51401187 407.12054636 472.93745061 401.54296875 478.43652344 C396.41229959 483.50150344 391.39191886 488.59279545 386.703125 494.07421875 C382.80528508 498.48163866 378.51212378 502.52387128 374.31640625 506.64453125 C370.28615125 510.63105834 366.45393886 514.70137291 362.75927734 519 C360.90667023 521.10610012 358.98724082 523.12654695 357.03515625 525.140625 C356.38095703 525.81867188 355.72675781 526.49671875 355.05273438 527.1953125 C353.70485283 528.58684477 352.3504662 529.97210025 350.99023438 531.3515625 C350.34505859 532.02445313 349.69988281 532.69734375 349.03515625 533.390625 C348.15935913 534.2882959 348.15935913 534.2882959 347.26586914 535.20410156 C346.84813232 535.79674805 346.43039551 536.38939453 346 537 C346 538.32 346 539.64 346 541 C359.94301744 541.18720907 373.88583892 541.32758112 387.82985687 541.41449738 C394.30498394 541.45621709 400.77926569 541.51278974 407.25390625 541.60351562 C413.50446355 541.69055167 419.75420874 541.73829833 426.00532532 541.75901794 C428.38801354 541.77377987 430.77065817 541.8026076 433.15299988 541.84584045 C436.49554851 541.90407628 439.83475863 541.9119064 443.17773438 541.90820312 C444.64941071 541.95134644 444.64941071 541.95134644 446.15081787 541.99536133 C448.97852087 541.96155002 451.28592254 541.80355151 454 541 C457.12094419 538.6718322 459.48376676 535.94843561 462 533 C463.26038019 531.86187024 464.53912342 530.74337789 465.84375 529.65625 C471.00184667 525.21343626 475.72339504 520.34513588 480.5 515.5 C485.93489944 509.98712496 491.36258184 504.57029138 497.24414062 499.53320312 C499.79479054 497.30599492 502.1340426 494.92296842 504.5 492.5 C508.16539797 488.74627918 511.95509621 485.26042079 515.92041016 481.82568359 C519.34007526 478.82354041 522.63515219 475.69246604 525.9375 472.5625 C527.42828747 471.15354219 528.91917587 469.74469116 530.41015625 468.3359375 C531.54541748 467.26230957 531.54541748 467.26230957 532.70361328 466.16699219 C534.96253483 464.03535412 537.22801804 461.91095461 539.49609375 459.7890625 C546.588877 453.14850895 553.62984073 446.48816683 560.41015625 439.52734375 C562.41766398 437.56828266 564.43723688 435.75171163 566.56640625 433.93359375 C572.2954919 428.96811731 577.55298336 423.51721912 582.875 418.125 C584.93201953 416.04139745 586.99233984 413.96113977 589.0546875 411.8828125 C590.40796143 410.51213623 590.40796143 410.51213623 591.78857422 409.11376953 C594 407 594 407 596 406 C596 405.34 596 404.68 596 404 C596.84884766 403.58427734 596.84884766 403.58427734 597.71484375 403.16015625 C600.60277353 401.69397652 602.33342328 399.78408982 604.5625 397.4375 C609.09636216 392.76153171 613.81657573 388.88292196 619.04296875 385.0078125 C619.68878906 384.34523438 620.33460938 383.68265625 621 383 C621.21902352 380.92689304 621.21902352 380.92689304 620 379 C618.20600522 376.80391686 618.20600522 376.80391686 615.9375 374.6875 C615.11636719 373.8934375 614.29523438 373.099375 613.44921875 372.28125 C610.77823038 369.79343946 608.05819221 367.38138614 605.2890625 365.00390625 C602.35037736 362.43130305 599.48856157 359.78064894 596.625 357.125 C591.7986679 352.64990286 586.93526776 348.22132689 582.0234375 343.83984375 C580.30307884 342.27557941 578.64416497 340.64416497 577 339 C587.56 338.67 598.12 338.34 609 338 C607.31974155 334.63948311 606.5409427 333.30873825 603.9453125 330.93359375 C603.3366333 330.37140137 602.7279541 329.80920898 602.10083008 329.22998047 C601.12279419 328.34270264 601.12279419 328.34270264 600.125 327.4375 C599.45170654 326.81762207 598.77841309 326.19774414 598.0847168 325.55908203 C594.98892184 322.71251705 591.87504429 319.88595167 588.76171875 317.05859375 C583.52254032 312.29128834 578.35469205 307.47512359 573.3125 302.5 C572.79469971 301.9951709 572.27689941 301.4903418 571.7434082 300.97021484 C569.41961143 298.65231703 568.05379911 297.16139733 567 294 C575.25 294 583.5 294 592 294 C588.35226259 286.70452518 582.45198519 281.17924834 576.2734375 275.953125 C572.89851408 273.05370626 569.64860899 270.02109081 566.38769531 266.99462891 C563.89932617 264.69709584 561.37788734 262.47435618 558.75 260.33984375 C556.06628843 258.05640166 554.59898853 256.10914437 553 253 C554.65 253 556.3 253 558 253 C558 252.01 558 251.02 558 250 C552.87722768 243.06614656 546.23123219 237.3260094 539.796875 231.640625 C536.92598777 228.93012253 534.50512666 226.04763817 532 223 C530.34605442 221.32070861 528.67766941 219.6555908 527 218 C526.12230957 217.12754639 525.24461914 216.25509277 524.34033203 215.35620117 C523.40560059 214.42783447 522.47086914 213.49946777 521.5078125 212.54296875 C519.92261789 210.9651599 518.33791034 209.38686367 516.75341797 207.80834961 C515.67228983 206.73224621 514.59026533 205.65704256 513.50732422 204.58276367 C511.92170184 203.00944228 510.33948434 201.43276047 508.7578125 199.85546875 C508.28465607 199.3874736 507.81149963 198.91947845 507.32400513 198.43730164 C504.63984514 195.75357874 502.09901681 192.99025456 499.61865234 190.11645508 C496.03575608 185.9843167 492.23386747 182.12273215 488.34375 178.28125 C487.63778687 177.57907349 486.93182373 176.87689697 486.20446777 176.15344238 C483.97208642 173.93315397 481.73647889 171.71616045 479.5 169.5 C476.54909622 166.57590521 473.60166797 163.64836943 470.65625 160.71875 C469.99250366 160.063302 469.32875732 159.407854 468.64489746 158.73254395 C464.75043622 154.85825999 461.05416476 150.86926974 457.47151184 146.70446777 C455.77320158 144.73729699 454.01436883 142.84826074 452.1875 141 C451.34251953 140.13375 451.34251953 140.13375 450.48046875 139.25 C449.74763672 138.63125 449.74763672 138.63125 449 138 C448.34 138 447.68 138 447 138 Z M509.875 580.75 C505.03290202 584.61805892 500.76150587 588.90785661 498.515625 594.8359375 C497.03052894 601.06884067 497.09872978 607.14939153 499.03125 613.26171875 C501.8401431 619.48029597 505.13686476 623.86782682 510.78515625 627.73046875 C516.30782581 630.89602009 521.82200178 631.49879846 528.08984375 631.38671875 C533.2108128 630.70621414 537.54734285 628.5367462 542 626 C543.08925781 625.505 544.17851563 625.01 545.30078125 624.5 C546.19152344 623.675 547.08226562 622.85 548 622 C548.74943917 618.38882063 548.56402294 614.91782573 548.375 611.25 C548.25125 607.8675 548.1275 604.485 548 601 C540.41 601 532.82 601 525 601 C525 604.3 525 607.6 525 611 C528.3 611 531.6 611 535 611 C534.625 613.4375 534.625 613.4375 534 616 C529.79660729 618.10169635 524.56526849 617.53638925 520 617 C516.6962294 615.42976683 514.82685238 613.08994177 512.625 610.1875 C511.6492561 606.77239635 511.55552567 603.4951845 512 600 C513.43237447 596.38495966 514.92253628 593.43632544 518 591 C522.0604885 589.64650383 525.75364167 589.44182644 530 590 C532.00390625 590.96484375 532.00390625 590.96484375 533.8125 592.125 C534.864375 592.74375 535.91625 593.3625 537 594 C539.12025033 593.4591216 539.12025033 593.4591216 541 592 C542.53442032 590.0734106 542.53442032 590.0734106 543.75 587.875 C544.17796875 587.15054688 544.6059375 586.42609375 545.046875 585.6796875 C545.51867187 584.84824219 545.51867187 584.84824219 546 584 C539.77276559 579.41606356 534.78693209 576.51192092 526.96875 575.8203125 C520.37220169 575.59197044 515.21500796 576.9299943 509.875 580.75 Z M633.7578125 584.0390625 C631.00245659 587.09167673 628.44041103 590.11889251 627 594 C626.7543534 596.79922867 626.61895127 599.45185594 626.625 602.25 C626.62661133 603.01344727 626.62822266 603.77689453 626.62988281 604.56347656 C626.7571602 610.39078442 627.62668282 614.12743074 631 619 C631.804375 620.299375 631.804375 620.299375 632.625 621.625 C636.8773837 625.8773837 642.29576725 629.09858908 648 631 C654.29396055 631.85286944 659.40024795 631.22111071 665.1875 628.5625 C672.1822288 624.71994119 676.50579643 619.58541763 681 613.125 C682.90402657 607.17491698 682.44386383 601.2563078 681.25 595.1875 C679.00082382 589.45210075 675.79629128 585.23689508 671.0390625 581.390625 C665.69894194 577.7487037 660.07814912 575.78413337 653.625 575.375 C646.0531193 575.6967513 639.33097122 578.97078924 633.7578125 584.0390625 Z M178 577 C178 581.29 178 585.58 178 590 C183.28 590 188.56 590 194 590 C193.67 603.2 193.34 616.4 193 630 C197.62 630 202.24 630 207 630 C207 616.8 207 603.6 207 590 C211.95 590 216.9 590 222 590 C222 585.71 222 581.42 222 577 C207.48 577 192.96 577 178 577 Z M240 577 C238.72326206 588.0717793 238.88762634 599.12243559 238.9375 610.25 C238.958125 616.7675 238.97875 623.285 239 630 C252.53 630 266.06 630 280 630 C280 626.04 280 622.08 280 618 C270.76 618 261.52 618 252 618 C252 615.36 252 612.72 252 610 C260.25 610 268.5 610 277 610 C277 606.04 277 602.08 277 598 C269.08 598 261.16 598 253 598 C253 595.36 253 592.72 253 590 C261.91 590 270.82 590 280 590 C280.36380344 581.76802948 280.36380344 581.76802948 279 577 C276.00362468 576.63161755 273.3681208 576.5364031 270.37109375 576.609375 C269.50686295 576.61503479 268.64263214 576.62069458 267.75221252 576.62652588 C264.98008824 576.64899465 262.20923637 576.69920839 259.4375 576.75 C257.56316965 576.7700515 255.68881913 576.78830461 253.81445312 576.8046875 C249.20914191 576.84889358 244.60478696 576.91799133 240 577 Z M299 577 C298.97465707 584.04751824 298.95713609 591.09502473 298.94506836 598.14257812 C298.9400378 600.54036905 298.93321267 602.93815691 298.92456055 605.3359375 C298.91243918 608.78125771 298.90675892 612.22653737 298.90234375 615.671875 C298.89718246 616.74491882 298.89202118 617.81796265 298.88670349 618.92352295 C298.88662796 619.92425842 298.88655243 620.9249939 298.88647461 621.95605469 C298.884254 622.83541687 298.88203339 623.71477905 298.87974548 624.62078857 C298.99668163 626.93434674 299.1455575 628.84203708 300 631 C303.04595433 631.48932641 303.04595433 631.48932641 306.5625 631.25 C308.686875 631.1675 310.81125 631.085 313 631 C313 626.05 313 621.1 313 616 C318.23011916 615.39423646 318.23011916 615.39423646 321 616 C322.60321418 618.45013629 323.53710745 620.32868451 324.5625 623 C325.8334176 625.77656035 327.03801048 627.5498159 329 630 C334.23420793 631.26728534 338.72778979 630.86497199 344 630 C341.92058312 626.22624345 339.85228042 622.76180194 337.1875 619.375 C335.51590227 617.05649913 335.0144082 616.30257216 334.875 613.375 C336.35367932 610.25334366 338.53624507 608.4050941 341 606 C343.27455967 602.54894394 344.22732158 599.70246138 344.4375 595.625 C344.26634901 591.55845244 343.39077505 588.3495638 341.41015625 584.79296875 C338.24161204 580.76426573 333.77722883 578.59240961 329 577 C326.7161483 576.91621372 324.429899 576.89270085 322.14453125 576.90234375 C321.48289474 576.9037587 320.82125824 576.90517365 320.13957214 576.90663147 C318.03050172 576.91222004 315.92153823 576.92477035 313.8125 576.9375 C312.38086091 576.94251648 310.94922015 576.94707913 309.51757812 576.95117188 C306.01168412 576.9621857 302.5058525 576.97944245 299 577 Z M363 577 C363 594.49 363 611.98 363 630 C367.29 630 371.58 630 376 630 C376 621.09 376 612.18 376 603 C381.61457578 608.61457578 381.61457578 608.61457578 383.60546875 611.76953125 C384.03150391 612.43017578 384.45753906 613.09082031 384.89648438 613.77148438 C385.76933413 615.15140569 386.64171756 616.53162206 387.51367188 617.91210938 C388.62843299 619.63956363 389.80901449 621.32418854 391 623 C391.66 623 392.32 623 393 623 C394.17788065 621.5661313 394.17788065 621.5661313 395.27734375 619.67578125 C395.92413086 618.62680664 395.92413086 618.62680664 396.58398438 617.55664062 C397.03064453 616.81607422 397.47730469 616.07550781 397.9375 615.3125 C398.38029297 614.59126953 398.82308594 613.87003906 399.27929688 613.12695312 C401.12251261 610.11902283 402.93971133 607.10540074 404.69140625 604.04296875 C406 602 406 602 408 601 C408 610.57 408 620.14 408 630 C412.29 630 416.58 630 421 630 C421 612.51 421 595.02 421 577 C417.04 577 413.08 577 409 577 C406.03109982 579.6707414 404.51087481 581.36304114 402.5 584.625 C402.0153125 585.33785156 401.530625 586.05070313 401.03125 586.78515625 C399.23109867 589.45114124 397.49060924 592.13000387 395.91015625 594.93261719 C394.90625 596.6484375 394.90625 596.6484375 393 599 C392.35804688 598.93296875 391.71609375 598.8659375 391.0546875 598.796875 C388.2106149 596.30966322 386.20672648 593.36936723 384.125 590.25 C382.47171347 587.78832416 380.77721621 585.37397434 379 583 C378.56913086 582.40896484 378.13826172 581.81792969 377.69433594 581.20898438 C376.14466073 579.23381322 376.14466073 579.23381322 373 577 C369.7 577 366.4 577 363 577 Z M443 577 C443 594.49 443 611.98 443 630 C456.2 630 469.4 630 483 630 C483 625.71 483 621.42 483 617 C474.09 617 465.18 617 456 617 C456 614.69 456 612.38 456 610 C463.59 610 471.18 610 479 610 C479.33 606.04 479.66 602.08 480 598 C472.08 598 464.16 598 456 598 C456 595.36 456 592.72 456 590 C464.91 590 473.82 590 483 590 C483 585.71 483 581.42 483 577 C469.8 577 456.6 577 443 577 Z M566 577 C566 594.49 566 611.98 566 630 C570.62 630 575.24 630 580 630 C580.14291015 622.93888131 580.14291015 622.93888131 579 616 C582.3935886 615.66189339 585.62013179 615.47048731 589 616 C590.375 618.5 590.375 618.5 591 622 C591.48995953 624.33673006 592.14164293 626.28040855 593.18359375 628.4296875 C595.06184405 630.34010085 595.06184405 630.34010085 598.59765625 630.5078125 C602.42024768 630.58542393 606.19390013 630.34084476 610 630 C609.45207105 625.3817417 607.41035512 622.01850353 604.9375 618.1875 C604.37192383 617.2912793 604.37192383 617.2912793 603.79492188 616.37695312 C602.87010434 614.91363423 601.93597935 613.45620477 601 612 C601.62648438 611.71640625 602.25296875 611.4328125 602.8984375 611.140625 C605.17322133 610.10241827 605.17322133 610.10241827 606.625 607.75 C609.39589474 602.20821052 610.73726236 597.22442811 610 591 C608.97624588 587.28889131 607.96121098 584.87275598 605.08984375 582.265625 C602.48865231 580.28286564 599.92799491 578.46399746 597 577 C594.67583704 576.91413191 592.34916693 576.89288957 590.0234375 576.90234375 C588.14277588 576.90609009 588.14277588 576.90609009 586.22412109 576.90991211 C584.62391113 576.91901611 583.02370117 576.92812012 581.375 576.9375 C576.30125 576.958125 571.2275 576.97875 566 577 Z M703.5625 597.625 C701.80655265 599.94779184 701.80655265 599.94779184 701.5 602.9375 C701.82850046 606.08648854 701.82850046 606.08648854 703.625 608.8125 C705.88288244 611.17969536 705.88288244 611.17969536 709 612.0625 C710.485 612.0315625 710.485 612.0315625 712 612 C714.34939689 610.15858081 715.6699947 608.6600106 717 606 C717.41702122 603.0842309 717.41702122 603.0842309 717 600 C715.56338689 597.47993156 715.56338689 597.47993156 713 596 C709.02512383 595.43216055 706.93510779 595.37659481 703.5625 597.625 Z M144.125 598 C142.63944274 600.64099068 142.52360766 603.05918124 142.65625 606.0546875 C142.91563752 608.21148017 142.91563752 608.21148017 144.5625 610.5625 C147.03995263 612.30993554 147.03995263 612.30993554 150.5625 611.9375 C153.85908755 611.21066512 153.85908755 611.21066512 155.9375 609.8125 C157.18596424 607.92540193 157.18596424 607.92540193 157.5 605.125 C157.21937793 601.83580461 157.21937793 601.83580461 154.875 599.125 C152.16419539 596.78062207 152.16419539 596.78062207 148.875 596.5 C146.08021119 596.83180848 146.08021119 596.83180848 144.125 598 Z " transform="translate(0,0)" style="fill: #EAE2A3;"/><path d="M0 0 C3.86010998 1.79308995 6.31437835 4.08023148 9.3125 7.125 C10.21613281 8.03507813 11.11976563 8.94515625 12.05078125 9.8828125 C14.18404963 12.09510584 16.20453712 14.38038367 18.20581055 16.71240234 C21.85486781 20.89405344 25.70862138 24.82047572 29.65625 28.71875 C30.36221313 29.42092651 31.06817627 30.12310303 31.79553223 30.84655762 C34.02791358 33.06684603 36.26352111 35.28383955 38.5 37.5 C41.45090378 40.42409479 44.39833203 43.35163057 47.34375 46.28125 C48.00749634 46.936698 48.67124268 47.592146 49.35510254 48.26745605 C53.2137176 52.10607955 56.85548847 56.06625938 60.41125488 60.18640137 C62.45154969 62.51545707 64.60660883 64.70292999 66.8125 66.875 C68.08480469 68.13570312 68.08480469 68.13570312 69.3828125 69.421875 C70.24648438 70.27265625 71.11015625 71.1234375 72 72 C77.36192801 77.28189923 82.61393587 82.57048224 87.51611328 88.28466797 C91.98954411 93.45583035 96.95601993 98.16965414 102.1875 102.5625 C106.04841345 105.87296193 109.42768175 109.58723647 112 114 C111.67 114.33 111.34 114.66 111 115 C109.33382885 115.04063832 107.66611905 115.042721 106 115 C111.15610093 122.80780998 117.80681771 128.16903699 125 134 C129.55906757 137.71510225 133.48321454 141.54437328 137.2890625 146.0390625 C138.92827336 147.91779275 140.64188736 149.64682821 142.4375 151.375 C143.283125 152.24125 144.12875 153.1075 145 154 C145 154.66 145 155.32 145 156 C136.75 156 128.5 156 120 156 C122.29490883 159.82484806 123.90675684 162.15540977 126.94921875 165.1796875 C127.71556641 165.94410156 128.48191406 166.70851563 129.27148438 167.49609375 C130.06876953 168.28113281 130.86605469 169.06617188 131.6875 169.875 C132.46544922 170.65230469 133.24339844 171.42960938 134.04492188 172.23046875 C138.27547374 176.42926502 142.58999846 180.47409151 147.10473633 184.36523438 C150.11663878 186.96316028 153.06215089 189.63145588 156 192.3125 C156.58394531 192.83650391 157.16789062 193.36050781 157.76953125 193.90039062 C159.21860026 195.22559308 160.61465367 196.60831825 162 198 C162 198.66 162 199.32 162 200 C146.16 200.495 146.16 200.495 130 201 C137.71865224 208.76209368 137.71865224 208.76209368 145.74609375 216.03125 C148.67520744 218.58978258 151.5236572 221.23041353 154.375 223.875 C159.20130641 228.35012424 164.06473293 232.77867373 168.9765625 237.16015625 C169.64429688 237.76730469 170.31203125 238.37445313 171 239 C171.60585938 239.49371094 172.21171875 239.98742187 172.8359375 240.49609375 C173.22007812 240.99238281 173.60421875 241.48867188 174 242 C173.75268555 243.9230957 173.75268555 243.9230957 173 246 C170.85527994 248.03704755 168.73084543 249.8971842 166.4375 251.75 C161.50291835 255.83664642 156.83642362 259.98365126 152.453125 264.671875 C151.97359375 265.11015625 151.4940625 265.5484375 151 266 C150.34 266 149.68 266 149 266 C149 266.66 149 267.32 149 268 C147.65429687 269.32226563 147.65429687 269.32226563 145.71875 270.90625 C142.14391798 273.94611596 138.77161856 277.13841825 135.46875 280.46875 C134.9843042 280.95649902 134.4998584 281.44424805 134.00073242 281.94677734 C132.49849478 283.46256197 130.99880899 284.98082544 129.5 286.5 C123.75649526 292.32154654 118.03760712 298.09139566 111.81445312 303.40820312 C108.72397969 306.11943655 105.87451459 309.06365914 103 312 C98.75042689 316.29917683 94.47208324 320.45540076 89.85546875 324.36328125 C86.91245346 326.95933052 84.20026379 329.77818963 81.46875 332.59375 C79.44375708 334.56747727 77.38853434 336.42631738 75.25390625 338.27734375 C70.11110578 342.73939133 65.1994791 347.43476651 60.26757812 352.12695312 C56.50538098 355.69059937 52.71355838 359.17112047 48.72290039 362.47827148 C46.37590779 364.55122102 44.20097188 366.77286471 42 369 C41.09725342 369.9079834 40.19450684 370.8159668 39.2644043 371.75146484 C38.79008469 372.22901215 38.31576508 372.70655945 37.82707214 373.19857788 C35.68032851 375.35890064 33.53074655 377.51639088 31.38110352 379.67382812 C30.25649806 380.8034592 29.13279218 381.9339866 28.01000977 383.06542969 C22.32231202 388.79567879 16.66396731 394.492852 10.49926758 399.71728516 C9.28400625 400.75701533 8.13090648 401.86909352 7 403 C5.06722832 403.24609566 5.06722832 403.24609566 2.65939331 403.24050903 C1.29217636 403.24463303 1.29217636 403.24463303 -0.10266113 403.24884033 C-1.10535034 403.24164978 -2.10803955 403.23445923 -3.14111328 403.22705078 C-4.19479095 403.22734283 -5.24846863 403.22763489 -6.33407593 403.22793579 C-9.82957084 403.22653838 -13.32485466 403.21095776 -16.8203125 403.1953125 C-19.23883955 403.19158383 -21.65736811 403.18873617 -24.07589722 403.18673706 C-30.45131579 403.17908908 -36.8266437 403.15943059 -43.20202637 403.1373291 C-49.70368218 403.11689573 -56.2053526 403.10774072 -62.70703125 403.09765625 C-75.47139292 403.07618581 -88.23569165 403.04241856 -101 403 C-100.20019531 398.24462891 -100.20019531 398.24462891 -98.3984375 396.04296875 C-97.73070312 395.43066406 -97.06296875 394.81835938 -96.375 394.1875 C-92.94867512 391.01171666 -89.8973682 387.6341785 -86.84277344 384.10766602 C-83.94676993 380.7953716 -80.94847542 377.5826237 -77.9375 374.375 C-77.29554688 373.68986328 -76.65359375 373.00472656 -75.9921875 372.29882812 C-71.04504649 367.04672637 -65.99032877 361.91319726 -60.83178711 356.86865234 C-57.97790698 354.06012675 -55.26709303 351.19323062 -52.65625 348.15625 C-47.95512617 342.71585753 -42.79559444 337.7486885 -37.671875 332.7109375 C-33.48282084 328.56462879 -29.4896867 324.34075008 -25.6484375 319.87109375 C-23.06779277 316.94187852 -20.29094908 314.22694421 -17.5 311.5 C-13.37785696 307.42935449 -9.42276184 303.30998672 -5.671875 298.890625 C-2.99100126 295.85898273 -0.07530129 293.0675006 2.8046875 290.2265625 C4.83223881 288.17014925 6.74129561 286.06280017 8.625 283.875 C15.30754489 276.1176402 15.30754489 276.1176402 19 273 C19.66 273 20.32 273 21 273 C21 272.34 21 271.68 21 271 C22.62848578 269.27281811 24.28257001 267.6352356 26 266 C30.26386329 261.84754406 34.27728141 257.57620891 38.15625 253.0625 C40.80690809 250.09735705 43.64169678 247.33414221 46.49609375 244.56640625 C47.24052734 243.79103516 47.24052734 243.79103516 48 243 C48 242.67 48 242.34 48 242 C47.35675781 242.02320313 46.71351563 242.04640625 46.05078125 242.0703125 C40.71553721 242.17686516 35.70480052 241.88830959 30.4375 241 C22.21955757 239.38874008 22.21955757 239.38874008 14 240 C10.80285433 242.24381496 8.45432027 244.98170827 6 248 C1.70890732 253.12730561 -2.81998979 257.75820115 -7.74023438 262.27587891 C-16.05493479 269.97710378 -24.08738357 277.94147002 -32.09375 285.9609375 C-33.57997374 287.44648508 -35.06634567 288.93188441 -36.55285645 290.41714478 C-39.63679491 293.49962413 -42.71895624 296.58386595 -45.79980469 299.66943359 C-49.73106968 303.60643019 -53.66685667 307.53887091 -57.60396576 311.4700222 C-60.66166545 314.52409761 -63.71696641 317.58056381 -66.77156067 320.6377449 C-68.22197799 322.08882451 -69.67312519 323.53917499 -71.12504578 324.98875046 C-73.15286164 327.01400496 -75.17740848 329.04247436 -77.20117188 331.07177734 C-78.0818483 331.94941742 -78.0818483 331.94941742 -78.98031616 332.8447876 C-82.63738244 336.52026513 -86.09895842 340.32540202 -89.48804474 344.2494297 C-91.24528118 346.28399118 -92.95594149 348.24794984 -95 350 C-95.99 350 -96.98 350 -98 350 C-98 321.95 -98 293.9 -98 265 C-125.00076423 265.31642099 -125.00076423 265.31642099 -152.00024414 265.72070312 C-157.23718262 265.75683594 -157.23718262 265.75683594 -159.69334412 265.7635498 C-161.39903992 265.77578874 -163.1046689 265.8038328 -164.80992126 265.84460449 C-170.30662343 265.96939187 -175.57801628 265.98125889 -181 265 C-184.34388006 262.83364001 -185.98912885 260.37880492 -188 257 C-188.95236607 255.95722237 -189.93924072 254.94458865 -190.96264648 253.97143555 C-191.43681503 253.5070256 -191.91098358 253.04261566 -192.39952087 252.56413269 C-193.12794945 251.85756279 -193.12794945 251.85756279 -193.87109375 251.13671875 C-194.95146559 250.07386618 -196.03153432 249.01070544 -197.11132812 247.94726562 C-198.7708374 246.31853777 -200.4325643 244.69229797 -202.09985352 243.0715332 C-212.89004414 232.56516908 -221.04332916 221.24251997 -229 208.4375 C-229.67933594 207.35919922 -230.35867187 206.28089844 -231.05859375 205.16992188 C-232.01958984 203.62981445 -232.01958984 203.62981445 -233 202.05859375 C-233.5775 201.13361084 -234.155 200.20862793 -234.75 199.25561523 C-236 197 -236 197 -236 195 C-227.60248539 194.39743025 -219.22251777 193.98412039 -210.8046875 193.81640625 C-209.33390002 193.78390701 -207.86311553 193.75127222 -206.39233398 193.71850586 C-204.17502623 193.66945615 -201.95818108 193.6252663 -199.74050903 193.59671021 C-186.86107755 193.47503367 -186.86107755 193.47503367 -175.33984375 188.16796875 C-174.54707031 187.51441406 -173.75429688 186.86085938 -172.9375 186.1875 C-158.31577293 175.25108561 -137.71530287 170.90080237 -120.4375 165.6875 C-114.02878803 163.79946635 -114.02878803 163.79946635 -108 161 C-107.67 159.35 -107.34 157.7 -107 156 C-114.59 156 -122.18 156 -130 156 C-130 146.76 -130 137.52 -130 128 C-85.45 128 -40.9 128 5 128 C3.02 125.36 1.04 122.72 -1 120 C-1.68908691 117.08175659 -1.68908691 117.08175659 -1.60351562 114.30419922 C-1.5867981 113.2192215 -1.57008057 112.13424377 -1.55285645 111.01638794 C-1.50447632 109.83277679 -1.45609619 108.64916565 -1.40625 107.4296875 C-1.36584884 105.44634244 -1.32553644 103.46299475 -1.28740692 101.47960472 C-1.24060696 99.26808551 -1.18008198 97.05721369 -1.11816406 94.84606934 C-0.97984629 89.60384587 -0.9269399 84.36191585 -0.8828125 79.11816406 C-0.87468033 78.16882366 -0.86654816 77.21948326 -0.85816956 76.24137497 C-0.84145025 74.28192209 -0.82481413 72.32246849 -0.80825806 70.36301422 C-0.76296902 65.36559971 -0.70382608 60.3683587 -0.64453125 55.37109375 C-0.63272324 54.36934742 -0.62091522 53.36760109 -0.60874939 52.33549881 C-0.58469594 50.29682609 -0.5605919 48.25815396 -0.53643799 46.21948242 C-0.47484574 40.9887841 -0.41525442 35.75806297 -0.35546875 30.52734375 C-0.23888023 20.35153991 -0.12016373 10.17576221 0 0 Z M-75 146 C-77.57497068 146.07035439 -80.11449929 146.0934934 -82.6875 146.0625 C-86.3071875 146.0315625 -86.3071875 146.0315625 -90 146 C-90 151.94 -90 157.88 -90 164 C-82.56996541 162.80160732 -77.21153538 160.22729491 -71 156 C-70.67 155.67 -70.34 155.34 -70 155 C-69.92794489 153.31391034 -69.91613932 151.62499341 -69.9375 149.9375 C-69.94652344 149.01839844 -69.95554687 148.09929687 -69.96484375 147.15234375 C-69.97644531 146.44207031 -69.98804688 145.73179687 -70 145 C-72.21081851 144.89459074 -72.21081851 144.89459074 -75 146 Z M-67 159 C-68.88197661 160.64370549 -68.88197661 160.64370549 -70 162.75 C-73.05958082 167.26186185 -76.24363937 170.29663193 -81 173 C-82.98491722 173.78905237 -84.98692286 174.53584285 -87 175.25 C-92.59686022 177.26147368 -97.42850451 179.84678869 -102.4375 183 C-103.09943359 183.41540039 -103.76136719 183.83080078 -104.44335938 184.25878906 C-108.55553333 186.9064958 -112.38828794 189.69531138 -116 193 C-116 193.66 -116 194.32 -116 195 C-53.96 194.67 8.08 194.34 72 194 C70.06098818 190.12197635 68.81978102 188.72952165 65.625 186 C61.54669604 182.42853729 57.67581304 178.73429636 53.875 174.875 C49.41991482 170.36832516 44.8656331 166.06131416 40 162 C39.1580307 161.15441025 38.3160614 160.3088205 37.44857788 159.43760681 C35.60430951 157.91277213 34.33363936 157.07650969 31.99110794 156.53932381 C29.61715079 156.37228619 27.28822303 156.35838514 24.90869141 156.40063477 C24.01358353 156.39669205 23.11847565 156.39274933 22.19624329 156.38868713 C19.24744055 156.38199345 16.30019878 156.41111023 13.3515625 156.44140625 C11.29422302 156.44565933 9.23687873 156.44798526 7.17953491 156.44847107 C2.87044475 156.45463198 -1.4381247 156.47730657 -5.74707031 156.51293945 C-11.25706114 156.55815412 -16.7665799 156.57296304 -22.27673912 156.57667637 C-26.52510186 156.58111694 -30.77336654 156.59644287 -35.02168655 156.6155529 C-37.05255964 156.62440301 -39.08344306 156.63114848 -41.11433029 156.63571358 C-43.95969728 156.64480997 -46.80464919 156.66724898 -49.64990234 156.69360352 C-50.48133255 156.69426819 -51.31276276 156.69493286 -52.16938782 156.69561768 C-57.41748621 156.76231952 -61.97325473 157.44841868 -67 159 Z " transform="translate(447,138)" style="fill: #191A1A;"/><path d="M0 0 C0.89539993 -0.0115361 1.79079987 -0.0230722 2.71333313 -0.03495789 C5.65070411 -0.06903598 8.58786628 -0.08771478 11.52539062 -0.10327148 C13.03845039 -0.11362584 13.03845039 -0.11362584 14.58207703 -0.12418938 C19.91458271 -0.15991642 25.246984 -0.18351666 30.57958984 -0.19726562 C36.07429779 -0.21384935 41.56772705 -0.27235815 47.06200409 -0.34040928 C51.30176747 -0.38523595 55.5412242 -0.39876275 59.78120422 -0.40388298 C61.80658419 -0.41176038 63.83195503 -0.43135626 65.85710144 -0.46310616 C81.64790949 -0.69446517 81.64790949 -0.69446517 86.61636353 1.82820129 C88.614193 3.55369289 90.10191593 5.23553927 91.68164062 7.33813477 C92.89959069 8.49010304 94.1348249 9.62429328 95.39257812 10.73266602 C96.61553812 11.87026505 97.83686759 13.00961923 99.05664062 14.15063477 C99.70294434 14.75375488 100.34924805 15.356875 101.01513672 15.97827148 C105.62870644 20.30270428 110.12379292 24.71901414 114.53320312 29.25219727 C116.70659963 31.43980211 116.70659963 31.43980211 119.45507812 33.48657227 C120.55722656 34.4030957 120.55722656 34.4030957 121.68164062 35.33813477 C121.68164062 35.99813477 121.68164062 36.65813477 121.68164062 37.33813477 C59.64164062 37.66813477 -2.39835938 37.99813477 -66.31835938 38.33813477 C-65.31835938 35.33813477 -65.31835938 35.33813477 -62.65039062 33.10375977 C-61.48522167 32.25412578 -60.31140882 31.41626496 -59.13085938 30.58813477 C-58.19560425 29.926604 -58.19560425 29.926604 -57.24145508 29.25170898 C-49.45556612 23.87883039 -41.10880017 19.89994916 -32.38085938 16.27563477 C-28.02188229 14.37162061 -24.56092858 11.82089429 -21.31835938 8.33813477 C-20.35929687 6.72938477 -20.35929687 6.72938477 -19.38085938 5.08813477 C-18.70023437 4.18063477 -18.01960938 3.27313477 -17.31835938 2.33813477 C-11.48842709 0.44648699 -6.09471175 0.02801093 0 0 Z " transform="translate(397.318359375,294.661865234375)" style="fill: #E6E2A5;"/><path d="M0 0 C7 0 7 0 9.5546875 1.65234375 C10.32039063 2.40644531 11.08609375 3.16054687 11.875 3.9375 C12.72578125 4.75863281 13.5765625 5.57976562 14.453125 6.42578125 C15.71382813 7.70001953 15.71382813 7.70001953 17 9 C17.77859375 9.77730469 18.5571875 10.55460938 19.359375 11.35546875 C20.86655007 12.8652424 22.36918772 14.37955968 23.8671875 15.8984375 C25.76999288 17.77336295 27.71504804 19.521568 29.75 21.25 C34.14922001 25.00564674 38.16043404 29.1294798 42.16894531 33.29394531 C44.9043374 36.09001154 47.60299132 38.50350486 50.83984375 40.7109375 C51.88269531 41.46632812 52.92554688 42.22171875 54 43 C55.05111609 46.15334826 55.12070472 48.35512283 55.11352539 51.66479492 C55.11344986 52.82577194 55.11337433 53.98674896 55.11329651 55.1829071 C55.10813522 56.43610245 55.10297394 57.68929779 55.09765625 58.98046875 C55.0962413 60.26359451 55.09482635 61.54672028 55.09336853 62.86872864 C55.08955405 66.27670241 55.07973291 69.68463343 55.06866455 73.09259033 C55.05842743 76.57148663 55.05386598 80.05038985 55.04882812 83.52929688 C55.03810967 90.35288212 55.02104609 97.17643901 55 104 C50.63852212 103.15268051 48.24212078 100.75719712 45.125 97.75 C44.1080702 96.78508707 43.0898425 95.82154014 42.0703125 94.859375 C41.57039795 94.38266357 41.0704834 93.90595215 40.55541992 93.41479492 C38.96842997 91.9712842 37.31296062 90.66559693 35.62109375 89.34765625 C34.75613281 88.57292969 33.89117187 87.79820312 33 87 C32.91051957 82.25753715 34.56634666 78.38980173 36.30078125 74.06640625 C37.42363564 70.74802651 37.68920444 67.48091027 38 64 C28.92615992 64.63451551 28.92615992 64.63451551 21 68.625 C20.39671875 69.14578125 19.7934375 69.6665625 19.171875 70.203125 C16.36174001 72.52805683 13.34034849 74.45209746 10.25 76.375 C9.16203125 77.06335938 8.0740625 77.75171875 6.953125 78.4609375 C4 80 4 80 0 80 C0 53.6 0 27.2 0 0 Z " transform="translate(376,137)" style="fill: #131414;"/><path d="M0 0 C3.3 0 6.6 0 10 0 C15.98678489 4.46287601 20.01329953 10.93643065 24.26928711 17.01977539 C25.46675501 18.71340698 26.72831541 20.36136165 28 22 C28.66 22 29.32 22 30 22 C31.66692383 19.86537812 33.21768632 17.7281524 34.75 15.5 C35.20391113 14.86304199 35.65782227 14.22608398 36.12548828 13.56982422 C38.05562404 10.85632504 39.90007095 8.17251434 41.5703125 5.2890625 C42.875 3.125 42.875 3.125 46 0 C49.96 0 53.92 0 58 0 C58 17.49 58 34.98 58 53 C53.71 53 49.42 53 45 53 C45 43.43 45 33.86 45 24 C42.6464083 26.3535917 41.09318795 28.20292212 39.3359375 30.94140625 C38.61277344 32.06385742 38.61277344 32.06385742 37.875 33.20898438 C37.38 33.98564453 36.885 34.76230469 36.375 35.5625 C35.87226563 36.34302734 35.36953125 37.12355469 34.8515625 37.92773438 C32.27947195 41.87962294 32.27947195 41.87962294 30 46 C28.515 45.505 28.515 45.505 27 45 C25.25941837 42.59108151 23.6427483 40.19758236 22.0625 37.6875 C21.20374821 36.33435438 20.34056078 34.98401212 19.47265625 33.63671875 C19.09375244 33.03561279 18.71484863 32.43450684 18.32446289 31.81518555 C16.70909325 29.50319491 16.70909325 29.50319491 13 26 C13 34.91 13 43.82 13 53 C8.71 53 4.42 53 0 53 C0 35.51 0 18.02 0 0 Z " transform="translate(363,577)" style="fill: #0F1010;"/><path d="M0 0 C4.08911371 -0.12501994 8.17746465 -0.21499365 12.26806641 -0.2746582 C13.65498264 -0.29956805 15.04177087 -0.33351002 16.42822266 -0.37719727 C24.39483664 -0.62166015 31.00711378 -0.37432585 38.11157227 3.61206055 C41.02024528 5.7498506 42.38683161 7.77366322 44 11 C45.36409171 15.09227514 45.49855587 18.7207288 45 23 C44.04760971 25.95033948 42.80697398 28.47944394 41 31 C40.071875 31.721875 39.14375 32.44375 38.1875 33.1875 C37.465625 33.785625 36.74375 34.38375 36 35 C36.22516776 39.57573054 38.49696607 42.57590203 41.0625 46.25 C42.38682394 48.15851604 43.70258621 50.07308931 45 52 C45 52.33 45 52.66 45 53 C39.72778979 53.86497199 35.23420793 54.26728534 30 53 C27.61481627 50.02131985 26.14032757 47.50533544 24.78710938 43.97998047 C23.96227295 41.78667871 23.96227295 41.78667871 22 39 C19.11509797 38.36908171 16.98852728 38.6538624 14 39 C14 43.95 14 48.9 14 54 C3.94140625 54.390625 3.94140625 54.390625 1 54 C-0.1709391 51.04269959 -0.1214775 48.10508803 -0.11352539 44.95605469 C-0.11344986 43.95531921 -0.11337433 42.95458374 -0.11329651 41.92352295 C-0.10813522 40.85047913 -0.10297394 39.7774353 -0.09765625 38.671875 C-0.0962413 37.56773254 -0.09482635 36.46359009 -0.09336853 35.32598877 C-0.08777258 31.80063158 -0.07522079 28.27533798 -0.0625 24.75 C-0.05748448 22.35937592 -0.05292166 19.96875084 -0.04882812 17.578125 C-0.03780447 11.71872832 -0.02107033 5.8593687 0 0 Z M14 13 C14 17.29 14 21.58 14 26 C16.27141109 25.88597936 18.54214552 25.75841495 20.8125 25.625 C22.70935547 25.52058594 22.70935547 25.52058594 24.64453125 25.4140625 C28.12755234 25.23897061 28.12755234 25.23897061 31 23 C31.47558206 21.098006 31.47558206 21.098006 31.375 19 C31.38273437 18.29875 31.39046875 17.5975 31.3984375 16.875 C31.20121094 15.946875 31.20121094 15.946875 31 15 C28.1338024 12.72418082 28.1338024 12.72418082 24.64453125 12.8046875 C22.74767578 12.83949219 22.74767578 12.83949219 20.8125 12.875 C19.54019531 12.89304687 18.26789063 12.91109375 16.95703125 12.9296875 C15.98121094 12.95289063 15.00539063 12.97609375 14 13 Z " transform="translate(299,577)" style="fill: #0F1111;"/><path d="M0 0 C6.60029407 2.30958968 11.69682123 6.2286507 16.38671875 11.37890625 C18.88916438 15.16685477 19.96603487 17.83552036 20.38671875 22.37890625 C20.474375 23.19617188 20.56203125 24.0134375 20.65234375 24.85546875 C20.98150036 30.16685957 20.51805709 33.95097143 17.88671875 38.62890625 C13.70812821 44.79403984 8.71352905 49.41375972 2.07421875 52.81640625 C-3.14458625 54.8788206 -8.08211067 55.28131945 -13.61328125 54.37890625 C-20.52436508 51.98018014 -25.49511087 48.39432794 -29.984375 42.61328125 C-32.96196829 38.59816962 -34.49246457 35.8256478 -34.921875 30.68359375 C-35.36916427 19.45688724 -35.36916427 19.45688724 -33.5546875 14.46875 C-29.52429528 8.10094874 -23.75263737 4.15590028 -17.30078125 0.50390625 C-11.42583847 -1.28844917 -5.98946737 -1.4235057 0 0 Z M-17.11328125 15.06640625 C-19.70083976 17.45989787 -21.25256498 19.12830626 -22.61328125 22.37890625 C-23.03245408 26.22132386 -22.79486657 28.84483178 -21.55078125 32.50390625 C-19.05793247 36.20297218 -16.71094885 38.55260496 -12.61328125 40.37890625 C-9.07106277 41.19811639 -6.14600604 41.27034148 -2.61328125 40.37890625 C1.06790696 38.04949863 4.41574667 35.32085042 6.38671875 31.37890625 C6.77699438 26.69559865 6.88085574 24.33057749 4.69921875 20.12890625 C1.487727 16.22502693 1.487727 16.22502693 -2.61328125 13.37890625 C-7.9490266 12.57936031 -12.22557986 12.70983594 -17.11328125 15.06640625 Z " transform="translate(661.61328125,576.62109375)" style="fill: #111212;"/><path d="M0 0 C4.929375 -0.12375 9.85875 -0.2475 14.9375 -0.375 C16.47398193 -0.42962402 18.01046387 -0.48424805 19.59350586 -0.54052734 C30.95639249 -0.6782593 30.95639249 -0.6782593 36.31640625 2.7734375 C39.47204162 5.21433329 42.20929688 7.98730116 43.6875 11.75 C44.62392103 18.49223145 44.05883492 22.92136777 41.08203125 29.01171875 C39.8889922 31.20398183 38.73120005 33.19010904 37 35 C36.34 35 35.68 35 35 35 C35.6496875 36.04800781 36.299375 37.09601562 36.96875 38.17578125 C37.81284793 39.55447454 38.65657891 40.93339254 39.5 42.3125 C39.92925781 43.00279297 40.35851562 43.69308594 40.80078125 44.40429688 C41.20683594 45.07138672 41.61289062 45.73847656 42.03125 46.42578125 C42.59682617 47.34484253 42.59682617 47.34484253 43.17382812 48.2824707 C44 50 44 50 44 53 C38.79367746 53.71537256 34.17306967 54.0919123 29 53 C25.78374521 49.41201726 24.28387781 45.6117402 23 41 C23 40.34 23 39.68 23 39 C19.7 39 16.4 39 13 39 C13.165 39.639375 13.33 40.27875 13.5 40.9375 C14.16396439 45.00428188 14.06149555 48.87979829 14 53 C9.38 53 4.76 53 0 53 C0 35.51 0 18.02 0 0 Z M13 13 C13 17.29 13 21.58 13 26 C15.43816585 26.0809723 17.87364384 26.14046972 20.3125 26.1875 C21.00279297 26.21263672 21.69308594 26.23777344 22.40429688 26.26367188 C24.68759622 26.32915666 24.68759622 26.32915666 28 26 C30.03138859 24.85683793 30.03138859 24.85683793 31 23 C31.5 19.5 31.5 19.5 31 16 C30.03138859 14.14316207 30.03138859 14.14316207 28 13 C25.35003674 12.7827899 22.94923442 12.71648446 20.3125 12.8125 C19.61060547 12.82603516 18.90871094 12.83957031 18.18554688 12.85351562 C16.45670171 12.88879818 14.72825235 12.94260417 13 13 Z " transform="translate(566,577)" style="fill: #121313;"/><path d="M0 0 C5.53583518 -0.09859012 11.071164 -0.1713348 16.60766602 -0.21972656 C18.49252212 -0.23989067 20.37731533 -0.26722196 22.26196289 -0.30175781 C24.96516396 -0.35006732 27.66754112 -0.37291961 30.37109375 -0.390625 C31.64296791 -0.42159271 31.64296791 -0.42159271 32.9405365 -0.45318604 C35.30639648 -0.45410156 35.30639648 -0.45410156 39 0 C40 4 40 4 40 13 C31.09 13 22.18 13 13 13 C13 15.64 13 18.28 13 21 C20.92 21 28.84 21 37 21 C37 24.96 37 28.92 37 33 C28.75 33 20.5 33 12 33 C12 35.64 12 38.28 12 41 C21.24 41 30.48 41 40 41 C40 44.96 40 48.92 40 53 C26.47 53 12.94 53 -1 53 C-1.020625 46.4825 -1.04125 39.965 -1.0625 33.25 C-1.071604 31.21875977 -1.08070801 29.18751953 -1.09008789 27.09472656 C-1.11326641 18.00896693 -1.04219851 9.03787031 0 0 Z " transform="translate(240,577)" style="fill: #0C0E0E;"/><path d="M0 0 C13.2 0 26.4 0 40 0 C40 4.29 40 8.58 40 13 C31.09 13 22.18 13 13 13 C13 15.64 13 18.28 13 21 C20.92 21 28.84 21 37 21 C36.67 24.96 36.34 28.92 36 33 C28.41 33 20.82 33 13 33 C13 35.31 13 37.62 13 40 C21.91 40 30.82 40 40 40 C40 44.29 40 48.58 40 53 C26.8 53 13.6 53 0 53 C0 35.51 0 18.02 0 0 Z " transform="translate(443,577)" style="fill: #0F1112;"/><path d="M0 0 C3.12753448 1.83456001 6.08095111 3.85125568 9 6 C8.10085301 7.51056694 7.18003899 9.00825429 6.25 10.5 C5.48429688 11.75296875 5.48429688 11.75296875 4.703125 13.03125 C4.14109375 13.6809375 3.5790625 14.330625 3 15 C-1 15 -1 15 -3.6875 13.5 C-7.93690082 11.57574302 -11.40395047 11.37133518 -16 12 C-19.02693601 13.31605913 -20.5916271 14.53328811 -22.75 17 C-24.96065571 20.53704913 -25.33835602 23.80311806 -25.28515625 27.9375 C-24.81467749 31.34041489 -23.16566828 33.41322956 -21 36 C-19.26912715 37.74383249 -19.26912715 37.74383249 -17 39 C-14.02161225 39.39895102 -14.02161225 39.39895102 -10.875 39.25 C-9.29332031 39.22679687 -9.29332031 39.22679687 -7.6796875 39.203125 C-5.02899832 39.17213628 -5.02899832 39.17213628 -3 38 C-2.34444881 35.47266765 -2.34444881 35.47266765 -2 33 C-5.3 33 -8.6 33 -12 33 C-12 29.7 -12 26.4 -12 23 C-4.41 23 3.18 23 11 23 C11.144375 26.361875 11.28875 29.72375 11.4375 33.1875 C11.53309204 34.76374146 11.53309204 34.76374146 11.63061523 36.37182617 C11.68647326 39.05635778 11.61702431 41.38182303 11 44 C9.00471507 46.39906813 6.79047366 47.66387866 4 49 C3.18015625 49.44988281 2.3603125 49.89976562 1.515625 50.36328125 C-6.04179452 53.52957943 -12.590308 53.68426255 -20.625 52.4375 C-26.59691974 49.89390456 -31.10917504 46.65025466 -34.90625 41.328125 C-38.46258793 34.98710736 -39.9031296 29.38091872 -39.51171875 22.109375 C-38.51601467 16.05914257 -36.25720022 11.40737685 -32.0625 6.93359375 C-28.06858047 3.31032206 -23.92058842 -0.13171696 -18.6875 -1.6875 C-12.28554037 -2.43191391 -6.05915843 -2.43720339 0 0 Z " transform="translate(537,578)" style="fill: #111212;"/><path d="M0 0 C14.52 0 29.04 0 44 0 C44 4.29 44 8.58 44 13 C39.05 13 34.1 13 29 13 C29 26.2 29 39.4 29 53 C24.38 53 19.76 53 15 53 C15.33 39.8 15.66 26.6 16 13 C10.72 13 5.44 13 0 13 C0 8.71 0 4.42 0 0 Z " transform="translate(178,577)" style="fill: #0A0C0C;"/><path d="M0 0 C3.60091111 1.97634375 6.07956992 4.43058871 8.15234375 7.96484375 C9.24510224 10.58847128 9.51525555 13.0705257 9.45703125 15.90234375 C8.74002904 19.19320003 6.87309064 21.14708895 4.60546875 23.5546875 C2.45972224 25.48638144 0.67419724 26.87545912 -2.19921875 27.40625 C-5.97600575 27.54854653 -8.92815706 27.52972073 -12.36328125 25.83203125 C-15.37443967 23.69064071 -17.55810692 21.71807625 -19.5 18.5625 C-20.1583261 15.18857873 -20.36158318 12.43504021 -20 9 C-18.32022117 5.7648704 -16.62541971 3.56856337 -13.9375 1.125 C-9.28069382 -0.65845769 -4.90554312 -0.87724305 0 0 Z " transform="translate(659,590)" style="fill: #EDCD91;"/><path d="M0 0 C0.55657434 3.47687183 0.74939163 6.54246204 0 10 C-4.35455325 14.78902114 -10.94156366 17.11979562 -17 19 C-17.99 19 -18.98 19 -20 19 C-20 13.06 -20 7.12 -20 1 C-12.6875 1.0625 -12.6875 1.0625 -10.3972168 1.09008789 C-6.75505536 1.10520869 -3.5106086 0 0 0 Z " transform="translate(377,283)" style="fill: #DEDFA6;"/><path d="M0 0 C2.43816585 -0.0809723 4.87364384 -0.14046972 7.3125 -0.1875 C8.34793945 -0.22520508 8.34793945 -0.22520508 9.40429688 -0.26367188 C11.42578125 -0.29296875 11.42578125 -0.29296875 15 0 C16.95703125 1.29296875 16.95703125 1.29296875 18 3 C18.375 6.5 18.375 6.5 18 10 C16.95703125 11.70703125 16.95703125 11.70703125 15 13 C12.35003674 13.2172101 9.94923442 13.28351554 7.3125 13.1875 C6.2596582 13.16719727 6.2596582 13.16719727 5.18554688 13.14648438 C3.45670171 13.11120182 1.72825235 13.05739583 0 13 C0 8.71 0 4.42 0 0 Z " transform="translate(579,590)" style="fill: #EED296;"/><path d="M0 0 C2.27057377 -0.05398987 4.54151288 -0.09278742 6.8125 -0.125 C8.07707031 -0.14820313 9.34164063 -0.17140625 10.64453125 -0.1953125 C14 0 14 0 17 2 C17.3984375 3.875 17.3984375 3.875 17.375 6 C17.38273437 6.70125 17.39046875 7.4025 17.3984375 8.125 C17.26695312 8.74375 17.13546875 9.3625 17 10 C13.36280395 12.42479736 11.14296518 12.38662577 6.8125 12.625 C5.54019531 12.69976563 4.26789063 12.77453125 2.95703125 12.8515625 C1.49330078 12.92503906 1.49330078 12.92503906 0 13 C0 8.71 0 4.42 0 0 Z " transform="translate(313,590)" style="fill: #E7DA9F;"/><path d="M0 0 C3.5 0.5 3.5 0.5 5.9375 2.125 C7.5 4.5 7.5 4.5 7.9375 7.4375 C7.43572788 10.94990487 6.81384182 12.80051788 4.5 15.5 C1.625 16.5625 1.625 16.5625 -1.5 16.5 C-4.24716387 14.72960551 -6.03145922 13.43708156 -7.5 10.5 C-7.8125 7.625 -7.8125 7.625 -7.5 4.5 C-5.2688488 1.10865017 -4.04019237 0.57717034 0 0 Z " transform="translate(709.5,595.5)" style="fill: #13100F;"/><path d="M0 0 C3.125 0.5 3.125 0.5 6 2.625 C8.125 5.5 8.125 5.5 8.75 8.5625 C8.125 11.5 8.125 11.5 5.9375 13.875 C3.125 15.5 3.125 15.5 0.5625 16 C-1.875 15.5 -1.875 15.5 -4.1875 14 C-5.94105587 11.40213945 -6.18994288 10.46243265 -6.3125 7.4375 C-5.875 3.5 -5.875 3.5 -4.75 1.5 C-2.875 0.5 -2.875 0.5 0 0 Z " transform="translate(148.875,596.5)" style="fill: #10100E;"/><path d="" transform="translate(0,0)" style="fill: #EAE2A3;"/></svg>